/* XPM */
static char *_1da4f09434d41a197b78fc8af0f00a7DnxrSDZNvFPcL5v6[] = {
/* columns rows colors chars-per-pixel */
"40 40 8 1 ",
"  c None",
". c black",
"X c #0C757D",
"o c #108564",
"O c #17A16A",
"+ c #DEBD6A",
"@ c #F2DEA7",
"# c #FFF9CC",
/* pixels */
"                     ...                ",
"                     ...                ",
"                 ....ooO..              ",
"                 ....ooO..              ",
"                .ooOOOOOoo..            ",
"              ..XOOOOOOOOOOO..          ",
"              ..XOOOOOOOOOOO..          ",
"          ....OOOOOOOOOOOOOOXX.         ",
"          ....OOOOOOOOOOOOOOXX.         ",
"         .ooOOOOOOOOOOOOOOOOOO.         ",
"         .ooOOOOOOOOOOOOOOOOOO.         ",
"     ....OOOOOOOOOOOOOOOOOOOOOo..       ",
"     ....OOOOOOOOOOOOOOOOOOOOOo..       ",
"   ..XXOOOOOOOOOOOOOOOOOOOOOOOO..       ",
"   ..XXOOOOOOOOOOOOOOOOOOOOOOOO..       ",
"  .ooOOOOOOOOOOOOOOOOOOOOOOOOOOOO..     ",
"..XOOOOOOOXXOOOOOOOOOOOoOOOOOOOOOoo..   ",
"..XOOOOOOOXXOOOOOOOOOOOoOOOOOOOOOoo..   ",
"..OOOOOOOoOOOOOOOOOOOOOOOOOOOOOOOOOOO.  ",
"..OOOOOOOoOOOOOOOOOOOOOOOOOOOOOOOOOOO.  ",
"..oOOOOOOOOOOOOOoOOOOOOOXXOOOOOooOOOOX..",
"..oOOOOOOOOOOOOOoOOOOOOOXXOOOOOooOOOOX..",
"  .ooOOOOoOOOOOOOOOOOOOOOOOOOOOOOOOOOO..",
"  .ooOOOOoOOOOOOOOOOOOOOOOOOOOOOOOOOOO..",
"   ....XXXOOOOOOXOOOOOOOooOOOOOooOOOOo..",
"       ............OOOOXooOOOOOOOooXX.  ",
"       ............OOOOXooOOOOOOOooXX.  ",
"                .@@..................   ",
"                .@@..................   ",
"              ..+######.                ",
"              ..+######.                ",
"              ..@##@@..                 ",
"              ..@##@@..                 ",
"              ..#####..                 ",
"              ..#####..                 ",
"            ..@@#####@@.                ",
"            ..++@######+..              ",
"            ..++@######+..              ",
"            ..............              ",
"            ..............              "
};
