/* XPM */
static char *b1acbcff252e4bd3919d13271718c89bXeOS3AjzoeZ2iMCJ[] = {
/* columns rows colors chars-per-pixel */
"40 40 6 1 ",
"  c None",
". c #20631D",
"X c #2F932C",
"o c #3CBA37",
"O c #6BEF67",
"+ c #A7EFA5",
/* pixels */
"                                        ",
"                                        ",
"                                        ",
"                                        ",
"                                        ",
"                                        ",
"                                        ",
"             .                          ",
"            .O.                         ",
"            .oO.                        ",
"            .oO+.                       ",
"             .oO.          .            ",
"             .oO+.        .o.           ",
"             .oOO.       .+o.           ",
"              .oO+.     .Ooo.           ",
"              .oOO+.    .Oo.            ",
"              .ooOO.   .+oo.            ",
"               .ooOO. .+Oo.             ",
"                .oOO. .Ooo.             ",
"                .ooO. .Oo.              ",
"         .....   .oOX.XO.  ...          ",
"       ..+OO++..  .oOXOOX..+oo.         ",
"     ..ooooOOOO+...XOOOO++Oo..          ",
"       ...ooooooO+OXOoOO.oX.            ",
"          ......X.OOOoooO..             ",
"                .OoXooXXooO.            ",
"               .OoXXoo.....             ",
"              .+o.XOo..                 ",
"             .+o. .+. ...               ",
"              ..  .o.   ..              ",
"                   .     ..             ",
"                          .             ",
"                                        ",
"                                        ",
"                                        ",
"                                        ",
"                                        ",
"                                        ",
"                                        ",
"                                        "
};
