/* XPM */
static char *_4e5f04f4b0c435fc76bda070b27d389T00632IscQuMyD7P[] = {
/* columns rows colors chars-per-pixel */
"40 40 7 1 ",
"  c #4F2E5E",
". c #633975",
"X c #684E74",
"o c #72587E",
"O c #785686",
"+ c #7C4792",
"@ c #9B59B6",
/* pixels */
"@@@@@@@@+++++XXXXX@@@@@..+++@@@@@@@.....",
"@@@@@@@@+++++XXXXX@@@@@..+++@@@@@@@.....",
"@@@@@@@@+++++XXXXX@@@@@..+++@@@@@@@.....",
"@@@@@@@@@@+++..XXX@@@@@@@@@@@@@@@++@@@@@",
"@@@@@@@@@@+++..XXX@@@@@@@@@@@@@@@++@@@@@",
"+++@@@@@++...++@@@@@@@@@@@@@@@@@@++...@@",
"+++@@@@@++...++@@@@@@@@@@@@@@@@@@++...@@",
"+++@@@@@++...++@@@@@@@@@@@@@@@@@@++...@@",
"...@@+++..+++@@@@@..++++++++..@@@@@.....",
"...@@+++..+++@@@@@..++++++++..@@@@@.....",
"+++++...++@@@@@...     @@OOO.....@@@@@..",
"+++++...++@@@@@...     @@OOO.....@@@@@..",
"+++++...++@@@@@...     @@OOO.....@@@@@..",
"@@@@@@@@@@@@@..   oo@@@@@@@@@@.....@@@@@",
"@@@@@@@@@@@@@..   oo@@@@@@@@@@.....@@@@@",
"@@@@@@@@@@...  ...++@@@@@+++@@@@@.....++",
"@@@@@@@@@@...  ...++@@@@@+++@@@@@.....++",
"@@@@@@@@@@...  ...++@@@@@+++@@@@@.....++",
"...  ...++........@@@@@@@@@@++@@@@@...++",
"...  ...++........@@@@@@@@@@++@@@@@...++",
"........++........@@+++++@@@@@+++@@@@@@@",
"........++........@@+++++@@@@@+++@@@@@@@",
"........++........@@+++++@@@@@+++@@@@@@@",
"@@@++@@@@@...  ...++...+++++@@@@@@@@@@@@",
"@@@++@@@@@...  ...++...+++++@@@@@@@@@@@@",
"+++  +++@@@@@..   ..++++++++@@@@@++...++",
"+++  +++@@@@@..   ..++++++++@@@@@++...++",
"+++  +++@@@@@..   ..++++++++@@@@@++...++",
"+++.....++@@@@@.....+++++@@@@@+++..+++++",
"+++.....++@@@@@.....+++++@@@@@+++..+++++",
"@@@@@+++..+++@@@@@+++++@@@@@++...++@@@@@",
"@@@@@+++..+++@@@@@+++++@@@@@++...++@@@@@",
"@@@@@+++..+++@@@@@+++++@@@@@++...++@@@@@",
"+++@@@@@++...++@@@@@@@@@@+++..+++@@@@@++",
"+++@@@@@++...++@@@@@@@@@@+++..+++@@@@@++",
"+++..@@@@@+++..++++++++++...++@@@@@...++",
"+++..@@@@@+++..++++++++++...++@@@@@...++",
"+++..@@@@@+++..++++++++++...++@@@@@...++",
"...@@+++++...++++++++++.....@@@@@@@...++",
"...@@+++++...++++++++++.....@@@@@@@...++"
};
