/* XPM */
static char *_fdd00d4acff41069f2c1bc59e7bda08g3cKorP9BGTMypiJ[] = {
/* columns rows colors chars-per-pixel */
"40 40 26 1 ",
"  c #464646",
". c #4B4B4B",
"X c gray30",
"o c gray32",
"O c gray33",
"+ c #585858",
"@ c gray36",
"# c #626262",
"$ c #646464",
"% c DimGray",
"& c #6D6D6D",
"* c #717171",
"= c gray46",
"- c #787778",
"; c #7B7B7B",
": c gray50",
"> c #808080",
", c gray53",
"< c gray54",
"1 c #8D8D8D",
"2 c gray57",
"3 c gray59",
"4 c #9A9A9A",
"5 c #9D9D9D",
"6 c gray63",
"7 c #A5A5A5",
/* pixels */
"..++%%****&&%%%%%%%%##$$$$%%&&****&&##OO",
"..++%%****&&%%%%%%%%##$$$$%%&&****&&##OO",
"OO;;<<<<<<<<<<<<11112211<<,,>>:>>>::&&##",
"OO;;<<<<<<<<<<<<11112211<<,,>>>>>>::&&##",
"##,,4444221111111111121111<<,,,,<<<<::%%",
"##,,4444221111111111221111<<,,,,<<<<::%%",
"%%<,5544----====****===*====;;--1122,,%%",
"%%<<5544----====****==**====;;--1122,,%%",
"&&,,4422--,,<<<<>>::>>>>,,,,,,;;,,22,,%%",
"&&,,4422--,,<<<<>>::>>>>,,,,,,;;,,22,,%%",
"**,,4422--<<11********-->>,,,,;;,,33<<$$",
"**,,4422--<<11********-->>,,,<;;,,33<<$$",
"**,,3322--<<11**********--,,,,==,,3311##",
"**,,3322--<<11**********--,,,,==,,3311##",
"==<<4422--1111****--******--,,==,,2211$$",
"==<<4422--1111****--******--,,==,,2211$$",
"==114433::2211****--;;&***-->>;;,,11<<%%",
"==114433::2211****--;;****-->>;;,,11<<%%",
"**<<5544::2211****--******--,,;;,,11<<&&",
"**<<5544::2211****--******--,,;;,,11<<&&",
"&&<<5533::2211**********--,,,,::,,<<<<==",
"&&<<5533::2211**********--,,,,::,,<<<<==",
"&&<<5533::1111********--1111<<::,,<<,,==",
"&&<<5533::1111********--1111<<::,,<<,,==",
"&&<<5533::1111****-->>11332211::,,11<<**",
"&&<<5533::1111****;->>11232211::,,11<<**",
"%%<<5533::1111****--<<33443322;;,,2211%%",
"%%<<5533::1111****--<<33443322;;,,2211%%",
"%%115533;;11<<****--1133443322==,,4433##",
"%%115533;;11<<****--1133443322==,,4433##",
"##115544==11<<,,,,,,1122332211==,,5555oo",
"##115544==11<<,,,,,,1122332211==,,5555oo",
"@@226666====;;::::::::;;==******,,7777.X",
"@@226666====;;::::::::;;==******,,7777XX",
"oo44776633<<,,,,,,,,,,,,,,,,,,,,,,7777..",
"oo44776633<<,,,,,,,,,,,,,,,,,,,,,,7777..",
"..5555443311<<,,>>>>,,<<<<<<<<11335566..",
"..5555443311<<,,>>>>,,<<<<<<<<11335566..",
"    XXooOO++@@@#########@@##$$$$##OOXX  ",
"    XXooOO++@@##########@@##$$$$##OOXX  "
};
