/* XPM */
static char *_c2f355f39674d4bbf7f1f89e6c2e2a71xkYFwqhvz9HFHvU[] = {
/* columns rows colors chars-per-pixel */
"40 40 10 1 ",
"  c None",
". c black",
"X c #090300",
"o c gray13",
"O c #FF0015",
"+ c #C62828",
"@ c #FFEB3B",
"# c gray62",
"$ c #FFCD94",
"% c #F7E4E5",
/* pixels */
"        .................               ",
"        .................               ",
"   .....%%OOOOOOOOOOOOOOO.............  ",
"   .....%%OOOOOOOOOOOOOOO.............  ",
"...%%%%%%%........OOOOOOOOOOOOOOOOOOOO..",
"...%%%%%%%........OOOOOOOOOOOOOOOOOOOO..",
"...%%%%%%%........OOOOOOOOOOOOOOOOOOOO..",
"   .......     ...OOOOOOOOOOOOOOOOOOOO..",
"   .......     ...OOOOOOOOOOOOOOOOOOOO..",
"               .........................",
"               .........................",
"               ...$$$$$$$$$$$$$$$$$$$$..",
"               ...$$$$$$$$$$$$$$$$$$$$..",
"               ...$$$$$$$...$$$$$..$$$..",
"               ...$$$$$$$...$$$$$..$$$..",
"               ...$$$$$$$...$$$$$..$$$..",
"               ...$$$$$$$%%%%%%%%$$$$$..",
"               ...$$$$$$$%%%%%%%%$$$$$..",
"     ++++++++  ...$$$$$%%........%%$$$..",
"     ++++++++  ...$$$$$%%........%%$$$..",
"   ++++++++++++...$$$$$%%%%%%%%%%%%$$$..",
"   ++++++++++++...$$$$$%%%%%%%%%%%%$$$..",
"+++++++++++++++........%%%%%%%%%%%%.....",
"+++++++++++++++........%%%%%%%%%%%%.....",
"++++++++++++++++++XXOOOOO%%%%%%%%OOXXX  ",
"++++++++++++++++++XXOOOOO%%%%%%%%OOXXX  ",
"++++++++++++++++++XXOOOOO%%%%%%%%OOXXX  ",
"++++++++++++++++++XXOOOOOOOO%%OOOOOXXX  ",
"++++++++++++++++++XXOOOOOOOO%%OOOOOXXX  ",
"   +++++++++++++++XX#####@@@@@#####XXX  ",
"   +++++++++++++++XX#####@@@@@#####XXX  ",
"   +++++++++++++++..OOOOO@@@@@OOOOO...  ",
"   +++++++++++++++..OOOOO@@@@@OOOOO...  ",
"     +++++++++++++XXXXXXXXXXXXXXXXXXXX  ",
"     +++++++++++++XXXXXXXXXXXXXXXXXXXX  ",
"     +++++++++++++XXXXXXXXXXXXXXXXXXXX  ",
"             +++++XXoooooooooooooooXXX  ",
"             +++++XXoooooooooooooooXXX  ",
"                  XXXXXXXXXXXXXXXXXXXX  ",
"                  XXXXXXXXXXXXXXXXXXXX  "
};
