/* XPM */
static char *_d0d7acd12354b55bdd55dbfe3b2c780faiPxOvAoCzK87R2[] = {
/* columns rows colors chars-per-pixel */
"40 40 37 1 ",
"  c None",
". c black",
"X c #03051E",
"o c #15280B",
"O c #0F0F28",
"+ c #5D1100",
"@ c #4F3903",
"# c #2E5918",
"$ c #3E7720",
"% c #1C1C49",
"& c gray26",
"* c #891600",
"= c #B77B21",
"- c #FF702D",
"; c #3EA21A",
": c #54A32D",
"> c #5EB533",
", c #78E840",
"< c #E5AA09",
"1 c #C48323",
"2 c #DB9327",
"3 c #ED9F2A",
"4 c #FFAB2D",
"5 c #FFC72D",
"6 c #89A87E",
"7 c #D88A5A",
"8 c #DB9F7A",
"9 c #FFD968",
"0 c #373EA4",
"q c #3B38AA",
"w c #4244AE",
"e c #9FA89C",
"r c #F2B087",
"t c #FFBC93",
"y c #FFE191",
"u c #FFCEAF",
"i c #FF8EDB",
/* pixels */
"                       @@@     @@       ",
"              @@   @@@@y95@  @@y5@      ",
"             @9y@ @<599995<@@y9995@ @@  ",
"             @559@5<5999955<9999955@y9@ ",
"              @59955599999559959995y95@ ",
"            @@<559959y9999959995559995@ ",
"           @y5599999yyy99y999999555995@ ",
"          @y9999y999yy955y9559995555y95@",
"          @5599yy99yyy555yy5559y55<5yy5@",
"           @<59y599yyy9559yy555yy55<5y5@",
"         @@<559y559yyyy955yyy55yy55<<55@",
"        @95559yy5<599yy9999yyy5y955<<55@",
"        @99999yy9<<559yy999yyyyy955<<5<@",
"         @9y959yy5<@@@@99999yyyy559@@9<@",
"          @y5<59y5@rrrr@@9999yyy59@88@<@",
"          @y5<<9yy@ruurr8@@99yy99@8r8@9@",
"         @y5<77@9y@ruuuurrr@@yy9@8rrr7@ ",
"         @5<7uu@99@ruuuuuurr8@@@rruur7  ",
"         @5<7uuu@@rruuuuuuuuurrruuuuu7  ",
"        @95<7uuuurruuuuu..uuuttuu..uu7  ",
"         @@5<77uuuruttu+..+ututu+..+t7  ",
"           @9<<7uuuuuttu**utuuutu**tt7  ",
"            @5@7uuuuuiiituuuuuuuuutii7  ",
"             @  7uuuuuuuutuuuuuuutuuu7  ",
"                o77uuuuuuuuuuuuuuuu77   ",
"               o>>>7777777777777777     ",
"              o>>>>:>>>>o====o::>#o     ",
"             oo>>,>::>>>>o=44o::>#o     ",
"             o>>>,#::->->o13o>:>>,#o    ",
"            oo>>>,#:::->>,o3o::>>,#$o   ",
"            o>>>,:#:::>>>,o3o::>>,#$o   ",
"    .....   o>,,:o:::->->,o3o:->-,#o7   ",
"  ..6eee6.. 7oooo7#:::->>,o3o::->,ott7  ",
" .6eee;ee66.7uttt7#:::>>,:o3o>::,:otu7  ",
" .ee;e;e;e667uuut7o::>>>:o244o>>:oOtu7  ",
".6eee;;;eee6677770woooooo%%%%%ooowO77   ",
".eee;;;;;eee6666XqwwwwwwwwwwwwwwwwO     ",
".6eeee;eeee66666XqwwwOOOOOOOOOwwwwO     ",
".66eee666666666. .&&.         .&&.      ",
" ..............   ..           ..       "
};
