/* XPM */
static char *_b6278de7b7e49a0e059e6838a13b178AF7SUvkgCS4uqwUh[] = {
/* columns rows colors chars-per-pixel */
"40 40 6 1 ",
"  c None",
". c #2E222F",
"X c #AE2334",
"o c #E83B3B",
"O c #FB6B1D",
"+ c white",
/* pixels */
"                 ......                 ",
"               ..oooooo..               ",
"               ..oooooo..               ",
"             ..oooooooooo..             ",
"            .oo++oooooo++oo.            ",
"            .XXXXXXooXXXXXX.            ",
"            .XXXXXXooXXXXXX.            ",
"           .oXX.+XXooXX.+XXo.           ",
"           .ooo..oooooo..ooo.           ",
"           .oooXXooOOooXXooo.           ",
"           .oooXXooOOooXXooo.           ",
"           .XooX+oooooo+XooX.           ",
"            .oooX++++++Xooo.            ",
"            .XXooooooooooXX.            ",
"            .XXooooooooooXX.            ",
"     ..........XooooooooX..........     ",
"    .OO+oooooooXXXXXXXXXXooooooo+OO.    ",
" ...ooooXXXXXXXXXXXXXXXXXXXXXXXXoooo... ",
" ...ooooXXXXXXXXXXXXXXXXXXXXXXXXoooo... ",
".++++++++++++++++++++++++++++++++++++++.",
".+++..+++..+++..+++++++....++.++.+++.++.",
".++.++.+.++.+.++.++..+++.++.+.++.+++..+.",
".+++++.+.++.+.++.+.++.++.++.+.++.+.+.++.",
".++++.++.++.+.++.+.++.++...++.++..++.++.",
".++++ .+.++.+.++.+...+++.++ +.++.+.+.++.",
".++. +.+.++.+.++.+.+++++.++++.++.+.+.++.",
".+++..+++..+++..+++..++...++++.+.+.++.+.",
".++++++++++++++++++++++++++++++++++++++.",
" ..........XXXXXXXXXXXXXXXXXX.......... ",
"         ..ooooooXXXXXXoooooo..         ",
"         ..ooooooXXXXXXoooooo..         ",
"         ..oooooo......oooooo..         ",
"         ..oOooOo..  ..oOooOo..         ",
"         ..OoOOoO..  ..OoOOoO..         ",
"         ..OoOOoO..  ..OoOOoO..         ",
"         ..+oooo+..  ..+oooo+..         ",
"         ..X++++X..  ..X++++X..         ",
"           .XXXX.      .XXXX.           ",
"           .XXXX.      .XXXX.           ",
"            ....        ....            "
};
