/* XPM */
static char *bba061a34bae4b5fa117237f0a2813f8tUKkuLMuBw1PqvQQ[] = {
/* columns rows colors chars-per-pixel */
"40 40 54 1 ",
"  c #D50000",
". c #E22600",
"X c #E22800",
"o c #F66600",
"O c #F76800",
"+ c #F86900",
"@ c #35B000",
"# c #34B513",
"$ c #33B926",
"% c #32BD3C",
"& c #4FB200",
"* c #50B200",
"= c #7FB600",
"- c #19817C",
"; c #1F9479",
": c #24A675",
"> c #2AB972",
", c #31C252",
"< c #2FC665",
"1 c #2FC96F",
"2 c #30C765",
"3 c #80B600",
"4 c #B1B900",
"5 c #FF8000",
"6 c #FF8E00",
"7 c #FF9700",
"8 c #FF9800",
"9 c orange",
"0 c #E3BD00",
"q c #FFB300",
"w c #FFB400",
"e c #FFBF00",
"r c #2B1E9E",
"t c #072D8F",
"y c #082D8F",
"u c #01378B",
"i c #092D90",
"p c #132794",
"a c #162795",
"s c #132893",
"d c #132894",
"f c #152895",
"g c #3F13A6",
"h c #3F14A6",
"j c #530AAE",
"k c #560AAF",
"l c #4013A6",
"z c #4014A7",
"x c #560AB0",
"c c #084A87",
"v c #084A88",
"b c #0D5B84",
"n c #0E5C84",
"m c #136E80",
/* pixels */
"                                        ",
"                                        ",
"                                        ",
"..........XX.XXXXXXXXXXXXXXXXXXXXXXXXXXX",
"oooooooooooooOOOOoOOOOOOOOOOOO+OOO+OOOOO",
"5555555555555555555555555555555555555555",
"5555555555555555555555555555555555555555",
"5555555555555555555555555555555555555555",
"5555555555555555555555555555555555555555",
"5555555555555555555555555555555555555555",
"6666666666666666666666666666666666666666",
"8888787787888778877878777777777777777777",
"9999999999999999999999999999999999999999",
"wqqqqwqqqqqqqqqqqqqqqqqqqqqqqqqqqqqqqqqq",
"eeeeeeeeeeeeeeeeeeeeeeeeeeeeeeeeeeeeeeee",
"eeeeeeeeeeeeeeeeeeeeeeeeeeeeeeeeeeeeeeee",
"0000000000000000000000000000000000000000",
"4444444444444444444444444444444444444444",
"=================================3====3=",
"&&&&&*&&&*&&&&&**&*&*&&**&*&**&*********",
"@@@@@@@@@@@@@@@@@@@@@@@@@@@@@@@@@@@@@@@@",
"########################################",
"$$$$$$$$$$$$$$$$$$$$$$$$$$$$$$$$$$$$$$$$",
"%%%%%%%%%%%%%%%%%%%%%%%%%%%%%%%%%%%%%%%%",
",,,,,,,,,,,,,,,,,,,,,,,,,,,,,,,,,,,,,,,,",
"<<<<<2<22<<2<<<<<22222<22<<2<<2<<22<2<<2",
"1111111111111111111111111111111111111111",
">>>>>>>>>>>>>>>>>>>>>>>>>>>>>>>>>>>>>>>>",
"::::::::::::::::::::::::::::::::::::::::",
";;;;;;;;;;;;;;;;;;;;;;;;;;;;;;;;;;;;;;;;",
"----------------------------------------",
"mmmmmmmmmmmmmmmmmmmmmmmmmmmmmmmmmmmmmmmm",
"bnbbnbbnnnbnnnnbnbbbnnnnnnbbbbbbnnnbnbnb",
"cvccvccvvvcvvvvcvcccvvvvvvccccccvvvvvcvc",
"uuuuuuuuuuuuuuuuuuuuuuuuuuuuuuuuuuuuuuuu",
"iiiiyyyyyytyyttytttttttttttttttttttttttt",
"aaaaaaaaaaafaaafafafafffapffdfddsdddddss",
"rrrrrrrrrrrrrrrrrrrrrrrrrrrrrrrrrrrrrrrr",
"zzzzlzglgzgzhhhhhhhhhhhhhhhhhhhhhhhhhhhh",
"kxxkkkkkkkkkkkkkkkkjjkkkkjkkkkjjjjjjjjjj"
};
